<?xml version="1.0" encoding="utf-8"?>
<!-- Generator: Adobe Illustrator 22.0.1, SVG Export Plug-In . SVG Version: 6.00 Build 0)  -->
<svg version="1.1" id="Layer_1" xmlns="http://www.w3.org/2000/svg" xmlns:xlink="http://www.w3.org/1999/xlink" x="0px" y="0px"
	 viewBox="0 0 600 428.4" style="enable-background:new 0 0 600 428.4;" xml:space="preserve">
<style type="text/css">
	.st0{fill:#9C2B2A;}
	.st1{fill:#454194;}
	.st2{fill:url(#SVGID_1_);}
	.st3{fill:#EE3633;}
	.st4{fill:url(#SVGID_2_);}
	.st5{fill:#FEDF5A;}
	.st6{fill:#91288D;}
	.st7{fill:url(#SVGID_3_);}
	.st8{fill:#6D378C;}
	.st9{fill:#EA0A8C;}
	.st10{fill:url(#SVGID_4_);}
	.st11{fill:url(#SVGID_5_);}
	.st12{fill:url(#SVGID_6_);}
	.st13{fill:#27AAE1;}
	.st14{fill:url(#SVGID_7_);}
</style>
<g>
	<path class="st0" d="M280,322.9c-12.6,2.7-25,5.8-37.7,8.1c-12.9,2.3-24.4-0.8-34.2-6.8c-14.5-8.9-29.2-17.5-43.1-26.9
		c-20.5-13.9-40.4-28.2-60.3-42.6c-4.6-3.4-9-7.2-12-11.3c-7.6-10.2-3-20.4,11.4-25.8c7.1-2.7,14.9-4.5,22.4-6.5
		c54.6-14.5,109.2-29.1,163.8-43.6c3.3-0.9,6.6-1.6,9.9-2.4c19-4.3,35.9-1.6,50.8,7.5c6,3.7,12,7.4,17.7,11.4
		c24,16.8,47.9,33.7,71.6,50.7c4.4,3.2,8.5,6.8,11.4,10.7c7.7,10.3,2.7,20.9-11.9,26.1c-5.6,2-11.7,3.4-17.7,5
		c-0.9,0.2-2.6-0.2-3.4-0.7c-3.1-2-6-4.2-9-6.3c-19.7-14-39.5-27.9-59.2-41.8c-2.4-1.7-4.9-3.2-7.7-4.6c-7.4-3.5-15.4-3.6-23.6-1.4
		c-30.7,8.3-61.4,16.6-92,24.8c-6.6,1.8-13.2,3.6-19.9,5.4c-11.7,3.1-13.4,9-4.4,15.3c24.8,17.5,49.5,35,74.3,52.5
		c1,0.7,1.9,1.4,2.9,2C280,322.1,280,322.5,280,322.9z"/>
	<path class="st0" d="M284.7,348.8c3.5,1.9-6.8,35.8-64.3,42.7C202.5,377,67,258,67,258s-3.4-2.5-4.9-4.6c-1.5-2.1,0.6-4,0.6-4
		S196,347.2,208.9,350.7C233.7,357.3,284.7,348.8,284.7,348.8z"/>
	<path class="st0" d="M76.5,201.6c0,0,2.6-24.6,11.6-31c0,0,264.7-69.1,269.9-65.7S546.6,208,546.6,208s18.4,8.2,13.7,18.2
		c-4.2,8.9-15.5,23.6-72.4,44.1c9.4-7.6,7.2-18.7,5.8-21.5c-2-13.1-126.8-94.4-126.8-94.4s-29.1-18.7-59.9-11.7
		S76.5,201.6,76.5,201.6z"/>
</g>
<polygon class="st1" points="76.5,180 76.5,201.6 87.5,181.8 89.9,176.5 "/>
<polygon class="st1" points="89.1,212.4 89.1,234.2 95.5,235.7 98.3,208.7 "/>
<path class="st0" d="M61.5,230.3c0,0-0.9,21,0,21.8c-0.4,7.8,158.9,139.5,158.9,139.5v-21.6L61.5,230.3z"/>
<linearGradient id="SVGID_1_" gradientUnits="userSpaceOnUse" x1="237.4489" y1="316.4223" x2="280.0237" y2="316.4223">
	<stop  offset="0" style="stop-color:#000000;stop-opacity:0"/>
	<stop  offset="1.580632e-02" style="stop-color:#020B0E;stop-opacity:1.580632e-02"/>
	<stop  offset="7.075363e-02" style="stop-color:#0A2C3A;stop-opacity:7.075363e-02"/>
	<stop  offset="0.1314" style="stop-color:#114A62;stop-opacity:0.1314"/>
	<stop  offset="0.1965" style="stop-color:#176484;stop-opacity:0.1965"/>
	<stop  offset="0.2674" style="stop-color:#1C7AA1;stop-opacity:0.2674"/>
	<stop  offset="0.346" style="stop-color:#208CB9;stop-opacity:0.346"/>
	<stop  offset="0.4354" style="stop-color:#2399CB;stop-opacity:0.4354"/>
	<stop  offset="0.5423" style="stop-color:#25A3D8;stop-opacity:0.5423"/>
	<stop  offset="0.684" style="stop-color:#27A8DF;stop-opacity:0.684"/>
	<stop  offset="1" style="stop-color:#27AAE1"/>
</linearGradient>
<path class="st2" d="M237.4,310.1v21.5c0,0,14.7-2.4,27.6-5.3c7.8-1.8,15-3.4,15-3.4v-21.6L237.4,310.1z"/>
<path class="st3" d="M338.2,121.4V143c0,0-6.5-2.1-14.9-1.8c-8.4,0.3-28.1,3.5-28.1,3.5L76.5,201.6V180l219-56.1
	c0,0,16.2-5.7,28.2-4.3S338.2,121.4,338.2,121.4z"/>
<path class="st3" d="M220.4,369.9v21.6c0,0,31.2-3,49.4-18.2c14-11.1,14.6-19,15.5-21.8c0.1-3.9,0.1-22.7,0.1-22.7"/>
<path class="st3" d="M455.3,232.9v22.9c0,0-0.5,7.6-8.1,12.1c-7.7,4.5-20.6,8.2-25,8.6l-2.6-0.3v-21.5"/>
<path class="st3" d="M561.1,200.5v22.4c0,0,0.9,3.2-6,11.2c-5.8,6.4-13.6,11.4-13.6,11.4s-10.1,7-26.9,14.2
	c-6.9,3-19.6,8.2-26.7,10.6v-21.6L561.1,200.5z"/>
<linearGradient id="SVGID_2_" gradientUnits="userSpaceOnUse" x1="183.2293" y1="223.3018" x2="331.0168" y2="223.3018">
	<stop  offset="0" style="stop-color:#EE3633"/>
	<stop  offset="0.1428" style="stop-color:#EA3532;stop-opacity:0.8572"/>
	<stop  offset="0.2742" style="stop-color:#DF3330;stop-opacity:0.7258"/>
	<stop  offset="0.4012" style="stop-color:#CC2E2C;stop-opacity:0.5988"/>
	<stop  offset="0.5254" style="stop-color:#B22826;stop-opacity:0.4746"/>
	<stop  offset="0.6477" style="stop-color:#90211F;stop-opacity:0.3523"/>
	<stop  offset="0.7686" style="stop-color:#671716;stop-opacity:0.2314"/>
	<stop  offset="0.8859" style="stop-color:#370C0C;stop-opacity:0.1141"/>
	<stop  offset="1" style="stop-color:#000000;stop-opacity:0"/>
</linearGradient>
<path class="st4" d="M331,198.6v21.6c0,0-1.8-0.5-4.8,0c-3,0.5-117.7,31.2-117.7,31.2l-24.1-4l-1.1-18.3l37.1-17.1l108.8-16.8
	L331,198.6z"/>
<g>
	<path class="st5" d="M280,301.3c-12.6,2.7-25,5.8-37.7,8.1c-12.9,2.3-24.4-0.8-34.2-6.8c-14.5-8.9-29.2-17.5-43.1-26.9
		c-20.5-13.9-40.4-28.2-60.3-42.6c-4.6-3.4-9-7.2-12-11.3c-7.6-10.2-3-20.4,11.4-25.8c7.1-2.7,14.9-4.5,22.4-6.5
		c54.6-14.5,109.2-29.1,163.8-43.6c3.3-0.9,6.6-1.6,9.9-2.4c19-4.3,35.9-1.6,50.8,7.5c6,3.7,12,7.4,17.7,11.4
		c24,16.8,47.9,33.7,71.6,50.7c4.4,3.2,8.5,6.8,11.4,10.7c7.7,10.3,2.7,20.9-11.9,26.1c-5.6,2-11.7,3.4-17.7,5
		c-0.9,0.2-2.6-0.2-3.4-0.7c-3.1-2-6-4.2-9-6.3c-19.7-14-39.5-27.9-59.2-41.8c-2.4-1.7-4.9-3.2-7.7-4.6c-7.4-3.5-15.4-3.6-23.6-1.4
		c-30.7,8.3-61.4,16.6-92,24.8c-6.6,1.8-13.2,3.6-19.9,5.4c-11.7,3.1-13.4,9-4.4,15.3c24.8,17.5,49.5,35,74.3,52.5
		c1,0.7,1.9,1.4,2.9,2C280,300.5,280,300.9,280,301.3z"/>
	<path class="st5" d="M284.7,327.2c3.5,1.9-6.8,35.8-64.3,42.7C202.5,355.4,67,236.5,67,236.5s-3.4-2.5-4.9-4.6
		c-1.5-2.1,0.6-4,0.6-4S196,325.6,208.9,329.1C233.7,335.7,284.7,327.2,284.7,327.2z"/>
	<path class="st5" d="M76.5,180c0,0,2.6-24.6,11.6-31c0,0,264.7-69.1,269.9-65.7c5.2,3.4,188.7,103.1,188.7,103.1
		s18.4,8.2,13.7,18.2c-4.2,8.9-15.5,23.6-72.4,44.1c9.4-7.6,7.2-18.7,5.8-21.5c-2-13.1-126.8-94.4-126.8-94.4s-29.1-18.7-59.9-11.7
		S76.5,180,76.5,180z"/>
</g>
<g>
	<path class="st6" d="M280,301.3c-12.6,2.7-25,5.8-37.7,8.1c-12.9,2.3-24.4-0.8-34.2-6.8c-14.5-8.9-29.2-17.5-43.1-26.9
		c-20.5-13.9-40.4-28.2-60.3-42.6c-4.6-3.4-9-7.2-12-11.3c-7.6-10.2-3-20.4,11.4-25.8c7.1-2.7,14.9-4.5,22.4-6.5
		c54.6-14.5,109.2-29.1,163.8-43.6c3.3-0.9,6.6-1.6,9.9-2.4c19-4.3,35.9-1.6,50.8,7.5c6,3.7,12,7.4,17.7,11.4
		c24,16.8,47.9,33.7,71.6,50.7c4.4,3.2,8.5,6.8,11.4,10.7c7.7,10.3,2.7,20.9-11.9,26.1c-5.6,2-11.7,3.4-17.7,5
		c-0.9,0.2-2.6-0.2-3.4-0.7c-3.1-2-6-4.2-9-6.3c-19.7-14-39.5-27.9-59.2-41.8c-2.4-1.7-4.9-3.2-7.7-4.6c-7.4-3.5-15.4-3.6-23.6-1.4
		c-30.7,8.3-61.4,16.6-92,24.8c-6.6,1.8-13.2,3.6-19.9,5.4c-11.7,3.1-13.4,9-4.4,15.3c24.8,17.5,49.5,35,74.3,52.5
		c1,0.7,1.9,1.4,2.9,2C280,300.5,280,300.9,280,301.3z"/>
	<path class="st6" d="M284.7,327.2c3.5,1.9-6.8,35.8-64.3,42.7C202.5,355.4,67,236.5,67,236.5s-3.4-2.5-4.9-4.6
		c-1.5-2.1,0.6-4,0.6-4S196,325.6,208.9,329.1C233.7,335.7,284.7,327.2,284.7,327.2z"/>
	<path class="st6" d="M76.5,180c0,0,2.6-24.6,11.6-31c0,0,264.7-69.1,269.9-65.7c5.2,3.4,188.7,103.1,188.7,103.1
		s18.4,8.2,13.7,18.2c-4.2,8.9-15.5,23.6-72.4,44.1c9.4-7.6,7.2-18.7,5.8-21.5c-2-13.1-126.8-94.4-126.8-94.4s-29.1-18.7-59.9-11.7
		S76.5,180,76.5,180z"/>
</g>
<polygon class="st1" points="76.5,158.4 76.5,180 87.5,160.2 89.9,154.9 "/>
<polygon class="st6" points="89.1,190.8 89.1,212.6 95.5,214.1 98.3,187.1 "/>
<path class="st6" d="M61.5,208.7c0,0-0.9,21,0,21.8c-0.4,7.8,158.9,139.5,158.9,139.5v-21.6L61.5,208.7z"/>
<linearGradient id="SVGID_3_" gradientUnits="userSpaceOnUse" x1="237.4489" y1="294.8281" x2="280.0237" y2="294.8281">
	<stop  offset="0" style="stop-color:#000000;stop-opacity:0"/>
	<stop  offset="1.580632e-02" style="stop-color:#020B0E;stop-opacity:1.580632e-02"/>
	<stop  offset="7.075363e-02" style="stop-color:#0A2C3A;stop-opacity:7.075363e-02"/>
	<stop  offset="0.1314" style="stop-color:#114A62;stop-opacity:0.1314"/>
	<stop  offset="0.1965" style="stop-color:#176484;stop-opacity:0.1965"/>
	<stop  offset="0.2674" style="stop-color:#1C7AA1;stop-opacity:0.2674"/>
	<stop  offset="0.346" style="stop-color:#208CB9;stop-opacity:0.346"/>
	<stop  offset="0.4354" style="stop-color:#2399CB;stop-opacity:0.4354"/>
	<stop  offset="0.5423" style="stop-color:#25A3D8;stop-opacity:0.5423"/>
	<stop  offset="0.684" style="stop-color:#27A8DF;stop-opacity:0.684"/>
	<stop  offset="1" style="stop-color:#27AAE1"/>
</linearGradient>
<path class="st7" d="M237.4,288.5V310c0,0,14.7-2.4,27.6-5.3c7.8-1.8,15-3.4,15-3.4v-21.6L237.4,288.5z"/>
<path class="st8" d="M338.2,99.8v21.6c0,0-6.5-2.1-14.9-1.8c-8.4,0.3-28.1,3.5-28.1,3.5L76.5,180v-21.6l219-56.1
	c0,0,16.2-5.7,28.2-4.3S338.2,99.8,338.2,99.8z"/>
<path class="st9" d="M220.4,348.3v21.6c0,0,31.2-3,49.4-18.2c14-11.1,14.6-19,15.5-21.8c0.1-3.9,0.1-22.7,0.1-22.7"/>
<path class="st9" d="M455.3,211.3v22.9c0,0-0.5,7.6-8.1,12.1c-7.7,4.5-20.6,8.2-25,8.6l-2.6-0.3v-21.5"/>
<path class="st9" d="M561.1,178.9v22.4c0,0,0.9,3.2-6,11.2c-5.8,6.4-13.6,11.4-13.6,11.4s-10.1,7-26.9,14.2
	c-6.9,3-19.6,8.2-26.7,10.6v-21.6L561.1,178.9z"/>
<linearGradient id="SVGID_4_" gradientUnits="userSpaceOnUse" x1="183.2293" y1="201.7076" x2="331.0168" y2="201.7076">
	<stop  offset="0" style="stop-color:#662D91"/>
	<stop  offset="0.1799" style="stop-color:#632C8D;stop-opacity:0.8201"/>
	<stop  offset="0.3454" style="stop-color:#5C2882;stop-opacity:0.6546"/>
	<stop  offset="0.5052" style="stop-color:#4E2370;stop-opacity:0.4948"/>
	<stop  offset="0.6616" style="stop-color:#3C1A55;stop-opacity:0.3384"/>
	<stop  offset="0.8155" style="stop-color:#241033;stop-opacity:0.1845"/>
	<stop  offset="0.9655" style="stop-color:#07030B;stop-opacity:3.447080e-02"/>
	<stop  offset="1" style="stop-color:#000000;stop-opacity:0"/>
</linearGradient>
<path class="st10" d="M331,177v21.6c0,0-1.8-0.5-4.8,0c-3,0.5-117.7,31.2-117.7,31.2l-24.1-4l-1.1-18.3l37.1-17.1l108.8-16.8
	L331,177z"/>
<g>
	<path class="st5" d="M280,279.7c-12.6,2.7-25,5.8-37.7,8.1c-12.9,2.3-24.4-0.8-34.2-6.8c-14.5-8.9-29.2-17.5-43.1-26.9
		c-20.5-13.9-40.4-28.2-60.3-42.6c-4.6-3.4-9-7.2-12-11.3c-7.6-10.2-3-20.4,11.4-25.8c7.1-2.7,14.9-4.5,22.4-6.5
		c54.6-14.5,109.2-29.1,163.8-43.6c3.3-0.9,6.6-1.6,9.9-2.4c19-4.3,35.9-1.6,50.8,7.5c6,3.7,12,7.4,17.7,11.4
		c24,16.8,47.9,33.7,71.6,50.7c4.4,3.2,8.5,6.8,11.4,10.7c7.7,10.3,2.7,20.9-11.9,26.1c-5.6,2-11.7,3.4-17.7,5
		c-0.9,0.2-2.6-0.2-3.4-0.7c-3.1-2-6-4.2-9-6.3c-19.7-14-39.5-27.9-59.2-41.8c-2.4-1.7-4.9-3.2-7.7-4.6c-7.4-3.5-15.4-3.6-23.6-1.4
		c-30.7,8.3-61.4,16.6-92,24.8c-6.6,1.8-13.2,3.6-19.9,5.4c-11.7,3.1-13.4,9-4.4,15.3c24.8,17.5,49.5,35,74.3,52.5
		c1,0.7,1.9,1.4,2.9,2C280,279,280,279.3,280,279.7z"/>
	<path class="st5" d="M284.7,305.6c3.5,1.9-6.8,35.8-64.3,42.7C202.5,333.9,67,214.9,67,214.9s-3.4-2.5-4.9-4.6
		c-1.5-2.1,0.6-4,0.6-4S196,304,208.9,307.5C233.7,314.1,284.7,305.6,284.7,305.6z"/>
	<path class="st5" d="M76.5,158.4c0,0,2.6-24.6,11.6-31c0,0,264.7-69.1,269.9-65.7s188.7,103.1,188.7,103.1S565,173,560.3,183
		c-4.2,8.9-15.5,23.6-72.4,44.1c9.4-7.6,7.2-18.7,5.8-21.5c-2-13.1-126.8-94.4-126.8-94.4s-29.1-18.7-59.9-11.7
		S76.5,158.4,76.5,158.4z"/>
</g>
<g>
	<path class="st1" d="M280,279.7c-12.6,2.7-25,5.8-37.7,8.1c-12.9,2.3-24.4-0.8-34.2-6.8c-14.5-8.9-29.2-17.5-43.1-26.9
		c-20.5-13.9-40.4-28.2-60.3-42.6c-4.6-3.4-9-7.2-12-11.3c-7.6-10.2-3-20.4,11.4-25.8c7.1-2.7,14.9-4.5,22.4-6.5
		c54.6-14.5,109.2-29.1,163.8-43.6c3.3-0.9,6.6-1.6,9.9-2.4c19-4.3,35.9-1.6,50.8,7.5c6,3.7,12,7.4,17.7,11.4
		c24,16.8,47.9,33.7,71.6,50.7c4.4,3.2,8.5,6.8,11.4,10.7c7.7,10.3,2.7,20.9-11.9,26.1c-5.6,2-11.7,3.4-17.7,5
		c-0.9,0.2-2.6-0.2-3.4-0.7c-3.1-2-6-4.2-9-6.3c-19.7-14-39.5-27.9-59.2-41.8c-2.4-1.7-4.9-3.2-7.7-4.6c-7.4-3.5-15.4-3.6-23.6-1.4
		c-30.7,8.3-61.4,16.6-92,24.8c-6.6,1.8-13.2,3.6-19.9,5.4c-11.7,3.1-13.4,9-4.4,15.3c24.8,17.5,49.5,35,74.3,52.5
		c1,0.7,1.9,1.4,2.9,2C280,279,280,279.3,280,279.7z"/>
	<path class="st1" d="M284.7,305.6c3.5,1.9-6.8,35.8-64.3,42.7C202.5,333.9,67,214.9,67,214.9s-3.4-2.5-4.9-4.6
		c-1.5-2.1,0.6-4,0.6-4S196,304,208.9,307.5C233.7,314.1,284.7,305.6,284.7,305.6z"/>
	<path class="st1" d="M76.5,158.4c0,0,2.6-24.6,11.6-31c0,0,264.7-69.1,269.9-65.7s188.7,103.1,188.7,103.1S565,173,560.3,183
		c-4.2,8.9-15.5,23.6-72.4,44.1c9.4-7.6,7.2-18.7,5.8-21.5c-2-13.1-126.8-94.4-126.8-94.4s-29.1-18.7-59.9-11.7
		S76.5,158.4,76.5,158.4z"/>
</g>
<polygon class="st1" points="76.5,136.8 76.5,158.4 87.5,138.6 89.9,133.3 "/>
<polygon class="st1" points="89.1,169.2 89.1,191.1 95.5,192.5 98.3,165.5 "/>
<path class="st1" d="M61.5,187.1c0,0-0.9,21,0,21.8c-0.4,7.8,158.9,139.5,158.9,139.5v-21.6L61.5,187.1z"/>
<linearGradient id="SVGID_5_" gradientUnits="userSpaceOnUse" x1="237.4489" y1="273.2339" x2="280.0237" y2="273.2339">
	<stop  offset="0" style="stop-color:#000000;stop-opacity:0"/>
	<stop  offset="1.580632e-02" style="stop-color:#020B0E;stop-opacity:1.580632e-02"/>
	<stop  offset="7.075363e-02" style="stop-color:#0A2C3A;stop-opacity:7.075363e-02"/>
	<stop  offset="0.1314" style="stop-color:#114A62;stop-opacity:0.1314"/>
	<stop  offset="0.1965" style="stop-color:#176484;stop-opacity:0.1965"/>
	<stop  offset="0.2674" style="stop-color:#1C7AA1;stop-opacity:0.2674"/>
	<stop  offset="0.346" style="stop-color:#208CB9;stop-opacity:0.346"/>
	<stop  offset="0.4354" style="stop-color:#2399CB;stop-opacity:0.4354"/>
	<stop  offset="0.5423" style="stop-color:#25A3D8;stop-opacity:0.5423"/>
	<stop  offset="0.684" style="stop-color:#27A8DF;stop-opacity:0.684"/>
	<stop  offset="1" style="stop-color:#27AAE1"/>
</linearGradient>
<path class="st11" d="M237.4,266.9v21.5c0,0,14.7-2.4,27.6-5.3c7.8-1.8,15-3.4,15-3.4v-21.6L237.4,266.9z"/>
<linearGradient id="SVGID_6_" gradientUnits="userSpaceOnUse" x1="76.4548" y1="117.2852" x2="338.1747" y2="117.2852">
	<stop  offset="0.273" style="stop-color:#27AAE1"/>
	<stop  offset="0.3938" style="stop-color:#26A8DE;stop-opacity:0.8338"/>
	<stop  offset="0.4933" style="stop-color:#25A0D4;stop-opacity:0.6969"/>
	<stop  offset="0.5853" style="stop-color:#2293C2;stop-opacity:0.5704"/>
	<stop  offset="0.6728" style="stop-color:#1D81AA;stop-opacity:0.4501"/>
	<stop  offset="0.7571" style="stop-color:#18698B;stop-opacity:0.3341"/>
	<stop  offset="0.839" style="stop-color:#114C64;stop-opacity:0.2215"/>
	<stop  offset="0.9188" style="stop-color:#092937;stop-opacity:0.1116"/>
	<stop  offset="0.9953" style="stop-color:#010303;stop-opacity:6.431401e-03"/>
	<stop  offset="1" style="stop-color:#000000;stop-opacity:0"/>
</linearGradient>
<path class="st12" d="M338.2,78.2v21.6c0,0-6.5-2.1-14.9-1.8c-8.4,0.3-28.1,3.5-28.1,3.5L76.5,158.4v-21.6l219-56.1
	c0,0,16.2-5.7,28.2-4.3S338.2,78.2,338.2,78.2z"/>
<path class="st13" d="M220.4,326.7v21.6c0,0,31.2-3,49.4-18.2c14-11.1,14.6-19,15.5-21.8c0.1-3.9,0.1-22.7,0.1-22.7"/>
<path class="st13" d="M455.3,189.7v22.9c0,0-0.5,7.6-8.1,12.1c-7.7,4.5-20.6,8.2-25,8.6l-2.6-0.3v-21.5"/>
<path class="st13" d="M561.1,157.3v22.4c0,0,0.9,3.2-6,11.2c-5.8,6.4-13.6,11.4-13.6,11.4s-10.1,7-26.9,14.2
	c-6.9,3-19.6,8.2-26.7,10.6v-21.6L561.1,157.3z"/>
<linearGradient id="SVGID_7_" gradientUnits="userSpaceOnUse" x1="183.2293" y1="180.1134" x2="331.0168" y2="180.1134">
	<stop  offset="0" style="stop-color:#27AAE1"/>
	<stop  offset="0.1466" style="stop-color:#26A7DD;stop-opacity:0.8534"/>
	<stop  offset="0.2815" style="stop-color:#249FD2;stop-opacity:0.7185"/>
	<stop  offset="0.4118" style="stop-color:#2191BF;stop-opacity:0.5882"/>
	<stop  offset="0.5394" style="stop-color:#1D7DA5;stop-opacity:0.4606"/>
	<stop  offset="0.665" style="stop-color:#176383;stop-opacity:0.335"/>
	<stop  offset="0.789" style="stop-color:#10445A;stop-opacity:0.211"/>
	<stop  offset="0.9095" style="stop-color:#071F29;stop-opacity:9.054744e-02"/>
	<stop  offset="1" style="stop-color:#000000;stop-opacity:0"/>
</linearGradient>
<path class="st14" d="M331,155.4v21.6c0,0-1.8-0.5-4.8,0c-3,0.5-117.7,31.2-117.7,31.2l-24.1-4l-1.1-18.3l37.1-17.1L329.2,152
	L331,155.4z"/>
<g>
	<path class="st5" d="M280,258.1c-12.6,2.7-25,5.8-37.7,8.1c-12.9,2.3-24.4-0.8-34.2-6.8c-14.5-8.9-29.2-17.5-43.1-26.9
		c-20.5-13.9-40.4-28.2-60.3-42.6c-4.6-3.4-9-7.2-12-11.3c-7.6-10.2-3-20.4,11.4-25.8c7.1-2.7,14.9-4.5,22.4-6.5
		c54.6-14.5,109.2-29.1,163.8-43.6c3.3-0.9,6.6-1.6,9.9-2.4c19-4.3,35.9-1.6,50.8,7.5c6,3.7,12,7.4,17.7,11.4
		c24,16.8,47.9,33.7,71.6,50.7c4.4,3.2,8.5,6.8,11.4,10.7c7.7,10.3,2.7,20.9-11.9,26.1c-5.6,2-11.7,3.4-17.7,5
		c-0.9,0.2-2.6-0.2-3.4-0.7c-3.1-2-6-4.2-9-6.3c-19.7-14-39.5-27.9-59.2-41.8c-2.4-1.7-4.9-3.2-7.7-4.6c-7.4-3.5-15.4-3.6-23.6-1.4
		c-30.7,8.3-61.4,16.6-92,24.8c-6.6,1.8-13.2,3.6-19.9,5.4c-11.7,3.1-13.4,9-4.4,15.3c24.8,17.5,49.5,35,74.3,52.5
		c1,0.7,1.9,1.4,2.9,2C280,257.4,280,257.7,280,258.1z"/>
	<path class="st5" d="M284.7,284c3.5,1.9-6.8,35.8-64.3,42.7C202.5,312.3,67,193.3,67,193.3s-3.4-2.5-4.9-4.6c-1.5-2.1,0.6-4,0.6-4
		S196,282.5,208.9,285.9C233.7,292.5,284.7,284,284.7,284z"/>
	<path class="st5" d="M76.5,136.8c0,0,2.6-24.6,11.6-31c0,0,264.7-69.1,269.9-65.7c5.2,3.4,188.7,103.1,188.7,103.1
		s18.4,8.2,13.7,18.2c-4.2,8.9-15.5,23.6-72.4,44.1c9.4-7.6,7.2-18.7,5.8-21.5c-2-13.1-126.8-94.4-126.8-94.4s-29.1-18.7-59.9-11.7
		S76.5,136.8,76.5,136.8z"/>
</g>
</svg>
